<?xml version="1.0" encoding="utf-8"?>
<!-- Generator: Adobe Illustrator 23.0.2, SVG Export Plug-In . SVG Version: 6.00 Build 0)  -->
<svg version="1.1" id="Lager_1" xmlns="http://www.w3.org/2000/svg" xmlns:xlink="http://www.w3.org/1999/xlink" x="0px" y="0px"
	 viewBox="0 0 50 25" style="enable-background:new 0 0 50 25;" xml:space="preserve">
<style type="text/css">
	.st0{fill:#E0E722;}
</style>
<g>
	<g>
		<path class="st0" d="M30.6,9.85c-0.11-1.07-0.52-2.1-1.19-2.91c-0.34-0.4-0.73-0.76-1.17-1.03c-0.44-0.28-0.92-0.49-1.43-0.63
			c-0.51-0.14-1.02-0.21-1.56-0.22c-0.53-0.01-1.05,0.04-1.56,0.16c-0.51,0.12-0.99,0.31-1.42,0.57c-0.43,0.26-0.82,0.59-1.14,0.98
			c-0.32,0.39-0.57,0.83-0.74,1.31c-0.09,0.24-0.16,0.48-0.21,0.73c-0.03,0.13-0.05,0.25-0.07,0.38c-0.02,0.13-0.03,0.25-0.05,0.38
			c-0.09,1.02,0.11,2.05,0.51,3.02c0.05,0.12,0.1,0.24,0.16,0.37c0.06,0.12,0.11,0.24,0.17,0.36c0.12,0.24,0.24,0.47,0.38,0.71
			c0.26,0.47,0.56,0.94,0.84,1.47c0.14,0.26,0.28,0.54,0.38,0.86l0.07,0.25c0.02,0.09,0.03,0.18,0.05,0.27
			c0.01,0.09,0.01,0.19,0.02,0.29c0,0.08,0,0.12,0,0.18c0.02,0.42,0.18,0.8,0.46,1.11l0,0l-0.49-0.22h5.59
			c0.32,0,0.61,0.21,0.67,0.53c0.09,0.43-0.24,0.8-0.65,0.8h-5.62H22.6c-0.19,0-0.37-0.09-0.49-0.22l0,0
			c-0.23-0.26-0.42-0.57-0.55-0.9c-0.13-0.33-0.2-0.69-0.21-1.03c0-0.08,0-0.19,0-0.24l-0.01-0.13l-0.02-0.14l-0.04-0.15
			c-0.06-0.21-0.17-0.44-0.28-0.67c-0.23-0.47-0.53-0.95-0.79-1.46c-0.14-0.25-0.27-0.52-0.39-0.79c-0.06-0.13-0.12-0.27-0.17-0.41
			c-0.05-0.13-0.11-0.27-0.16-0.41c-0.41-1.11-0.63-2.34-0.48-3.55c0.02-0.15,0.04-0.3,0.07-0.45c0.03-0.14,0.06-0.29,0.09-0.44
			c0.07-0.29,0.16-0.59,0.28-0.87c0.23-0.57,0.55-1.1,0.95-1.57c0.4-0.47,0.89-0.86,1.42-1.16c0.53-0.3,1.11-0.5,1.7-0.62
			c0.59-0.12,1.19-0.16,1.77-0.13c0.59,0.02,1.18,0.12,1.75,0.3c0.57,0.18,1.11,0.44,1.6,0.78c0.49,0.34,0.92,0.76,1.28,1.23
			c0.35,0.48,0.63,1.01,0.82,1.56c0.18,0.56,0.29,1.13,0.31,1.71c0,0.12-0.09,0.22-0.21,0.23C30.71,10.06,30.62,9.97,30.6,9.85
			L30.6,9.85z"/>
	</g>
	<g>
		<path class="st0" d="M28.19,22.07c-0.04,0.19-0.21,0.32-0.4,0.32l0,0l-4.21-0.01c-0.22,0-0.42-0.16-0.43-0.37
			c-0.02-0.24,0.17-0.44,0.41-0.44c0,0,0,0,0,0l3.91,0.01l0.58-2.76c0.04-0.19,0.19-0.34,0.38-0.34c0.28-0.01,0.47,0.24,0.42,0.49
			L28.19,22.07z"/>
	</g>
	<g>
		<path class="st0" d="M27.57,20.9h-5.13c-0.23,0-0.41-0.19-0.41-0.41c0-0.23,0.19-0.41,0.41-0.41h5.13c0.23,0,0.41,0.19,0.41,0.41
			C27.98,20.72,27.8,20.9,27.57,20.9z"/>
	</g>
	<g>
		<path class="st0" d="M24.5,18.83l0.33-9.11c0-0.09,0.08-0.16,0.17-0.16c0.09,0,0.16,0.07,0.16,0.16l0.33,9.11
			c0.01,0.27-0.2,0.5-0.48,0.51c-0.27,0.01-0.5-0.2-0.51-0.48C24.5,18.86,24.5,18.84,24.5,18.83z"/>
	</g>
	<g>
		<path class="st0" d="M41.46,18.23c0.64-0.5,1.28-0.98,1.91-1.49c0.63-0.49,1.24-1.01,1.85-1.52c0.61-0.52,1.2-1.05,1.79-1.58
			c0.58-0.54,1.16-1.09,1.72-1.64l0.52,1.28l-0.16,0c-0.19,0-0.37-0.07-0.5-0.2l-0.01-0.01c-1.62-1.56-3.35-2.98-5.2-4.24
			c-0.46-0.31-0.93-0.62-1.4-0.92c-0.47-0.3-0.95-0.58-1.44-0.87c-0.98-0.57-1.95-1.11-2.95-1.61c-1-0.5-2.01-0.96-3.04-1.36
			c-0.51-0.21-1.04-0.38-1.56-0.57L32.2,3.27l-0.4-0.12l-0.4-0.1c-2.13-0.56-4.32-0.89-6.51-0.88c-2.19,0-4.38,0.26-6.51,0.82
			c-1.06,0.28-2.11,0.62-3.14,1.03c-1.03,0.4-2.04,0.87-3.03,1.38c-0.99,0.51-1.97,1.06-2.95,1.63C8.3,7.58,7.36,8.18,6.45,8.82
			c-1.83,1.28-3.55,2.73-5.14,4.31l-0.54-1.33l0.12,0.17l0.01,0c0.21,0,0.4,0.08,0.53,0.22c1.84,1.78,3.86,3.4,6.02,4.8
			c0.54,0.35,1.09,0.69,1.65,1.01c0.55,0.32,1.13,0.65,1.7,0.97c1.14,0.63,2.29,1.22,3.48,1.73c2.36,1.05,4.87,1.79,7.44,2.16
			c0.32,0.04,0.64,0.09,0.97,0.12l0.97,0.09c0.65,0.06,1.3,0.08,1.95,0.07c0.65-0.01,1.3-0.05,1.95-0.12
			c0.65-0.07,1.29-0.17,1.93-0.31c0.12-0.03,0.24,0.05,0.27,0.17c0.03,0.11-0.05,0.23-0.16,0.26c-0.64,0.18-1.3,0.34-1.96,0.45
			c-0.66,0.11-1.33,0.19-2,0.24c-0.67,0.05-1.35,0.06-2.02,0.04l-1.01-0.04c-0.34-0.01-0.67-0.06-1.01-0.08
			c-1.34-0.13-2.67-0.36-3.98-0.69c-1.31-0.33-2.59-0.75-3.84-1.25c-1.25-0.5-2.46-1.08-3.64-1.7c-0.59-0.31-1.17-0.61-1.75-0.94
			c-0.59-0.32-1.16-0.67-1.73-1.02c-1.13-0.71-2.23-1.47-3.29-2.29c-1.05-0.82-2.07-1.69-3.03-2.61l0.54,0.22l-0.11,0
			c-0.35,0-0.71-0.27-0.77-0.61c-0.04-0.25,0.05-0.49,0.21-0.65l0.01-0.01c1.63-1.58,3.41-3.03,5.3-4.32
			c0.95-0.64,1.92-1.25,2.92-1.81c0.99-0.56,1.98-1.1,3.01-1.61c1.03-0.51,2.08-0.98,3.17-1.39c1.08-0.41,2.2-0.76,3.33-1.05
			c2.26-0.58,4.61-0.87,6.95-0.85c2.34,0,4.68,0.34,6.94,0.92l0.42,0.11l0.42,0.12l0.84,0.25c0.55,0.19,1.1,0.36,1.64,0.58
			c1.09,0.4,2.14,0.88,3.17,1.39c1.03,0.51,2.04,1.06,3.02,1.62c0.49,0.28,0.99,0.56,1.47,0.86c0.49,0.3,0.97,0.61,1.45,0.92
			c1.9,1.27,3.69,2.7,5.34,4.26l-0.51-0.2l0.12-0.17l0.06,0c0.27,0,0.52,0.14,0.64,0.38c0.17,0.34,0.07,0.69-0.14,0.9
			c-0.6,0.56-1.22,1.11-1.86,1.62c-0.64,0.52-1.3,1.01-1.98,1.47c-0.67,0.47-1.38,0.89-2.09,1.3c-0.72,0.4-1.44,0.77-2.2,1.09
			c-0.1,0.04-0.21,0-0.25-0.1C41.37,18.37,41.39,18.28,41.46,18.23L41.46,18.23z"/>
	</g>
</g>
</svg>
