<?xml version="1.0" encoding="utf-8"?>
<!-- Generator: Adobe Illustrator 23.0.2, SVG Export Plug-In . SVG Version: 6.00 Build 0)  -->
<svg version="1.1" xmlns="http://www.w3.org/2000/svg" xmlns:xlink="http://www.w3.org/1999/xlink" x="0px" y="0px"
	 viewBox="0 0 500 500" style="enable-background:new 0 0 500 500;" xml:space="preserve">
<style type="text/css">
	.st0{fill:#FFFFFF;}
	.st1{display:none;}
	.st2{display:inline;}
	.st3{fill:none;stroke:#FFFFFF;stroke-width:5;stroke-linecap:round;stroke-linejoin:round;stroke-miterlimit:10;}
	.st4{display:inline;stroke:#000000;stroke-linecap:round;stroke-linejoin:round;stroke-miterlimit:10;}
	.st5{display:inline;fill:none;stroke:#000000;stroke-width:12;stroke-linecap:round;stroke-linejoin:round;stroke-miterlimit:10;}
	.st6{display:inline;fill:none;stroke:#000000;stroke-width:6;stroke-linecap:round;stroke-linejoin:round;stroke-miterlimit:10;}
	.st7{fill:none;stroke:#000000;stroke-width:14;stroke-linecap:round;stroke-linejoin:round;stroke-miterlimit:10;}
	.st8{display:inline;fill:none;}
</style>
<g id="Layer_1">
	<g>
		<path class="st0" d="M349.68,283.91c3.82-2.99,7.65-5.89,11.39-8.88c3.77-2.96,7.44-6.01,11.09-9.08
			c3.63-3.09,7.18-6.25,10.69-9.45c3.5-3.21,6.93-6.49,10.3-9.82l3.1,7.66l-0.74,0.01c-1.17,0.01-2.24-0.44-3.02-1.18l-0.08-0.07
			c-9.76-9.25-20.24-17.71-31.38-25.21c-2.79-1.86-5.6-3.7-8.47-5.44c-2.85-1.76-5.75-3.43-8.72-5.14
			c-5.89-3.39-11.79-6.63-17.81-9.6c-6.01-2.98-12.12-5.7-18.35-8.08c-3.09-1.27-6.26-2.27-9.4-3.38l-4.77-1.45l-2.39-0.72
			l-2.41-0.62c-12.85-3.32-26.06-5.29-39.3-5.23c-13.24-0.01-26.47,1.56-39.31,4.89c-6.42,1.67-12.75,3.7-18.96,6.1
			c-6.21,2.41-12.29,5.19-18.28,8.21c-5.98,3.02-11.9,6.33-17.81,9.68c-5.82,3.32-11.5,6.89-17.02,10.7
			c-11.04,7.61-21.42,16.2-31.02,25.6l-3.26-7.92l0.73,0l0.05,0c1.25,0.01,2.39,0.52,3.21,1.34c11.1,11.07,23.28,21.08,36.33,29.8
			c3.27,2.16,6.58,4.28,9.96,6.28c3.35,2.01,6.85,4.04,10.27,5.99c6.87,3.91,13.84,7.56,21,10.76c14.28,6.5,29.39,11.09,44.93,13.39
			c1.95,0.25,3.88,0.57,5.85,0.77l5.89,0.57c3.94,0.36,7.83,0.51,11.76,0.46c3.92-0.05,7.85-0.31,11.76-0.76
			c3.91-0.44,7.81-1.06,11.68-1.9c0.74-0.16,1.46,0.31,1.63,1.04c0.15,0.7-0.27,1.4-0.95,1.6c-3.88,1.13-7.83,2.09-11.83,2.8
			c-4,0.7-8.04,1.2-12.1,1.48c-4.05,0.29-8.17,0.36-12.21,0.22l-6.08-0.24c-2.03-0.08-4.05-0.34-6.08-0.5
			c-8.09-0.84-16.15-2.24-24.04-4.3c-7.89-2.05-15.63-4.68-23.16-7.78c-7.52-3.13-14.83-6.72-21.96-10.53
			c-3.57-1.93-7.05-3.8-10.59-5.84c-3.54-2.01-7-4.15-10.43-6.33c-6.84-4.41-13.47-9.15-19.84-14.22
			c-6.36-5.09-12.47-10.49-18.29-16.19l3.25,1.34l-0.73,0c-2.55,0.01-4.63-2.04-4.65-4.6c-0.01-1.28,0.51-2.44,1.34-3.28l0.04-0.04
			c9.86-9.87,20.56-18.92,31.98-26.98c5.71-4.03,11.58-7.82,17.62-11.35c5.95-3.48,11.97-6.89,18.2-10.08
			c6.22-3.18,12.59-6.14,19.13-8.72c6.55-2.57,13.26-4.78,20.08-6.59c13.66-3.61,27.82-5.45,41.97-5.33
			c14.16,0,28.26,2.14,41.89,5.72l2.56,0.67l2.53,0.77l5.05,1.55c3.31,1.19,6.67,2.26,9.91,3.61c6.56,2.51,12.92,5.5,19.14,8.66
			c6.22,3.17,12.29,6.6,18.22,10.12c2.94,1.74,5.95,3.53,8.9,5.4c2.96,1.85,5.86,3.8,8.74,5.77c11.47,7.96,22.29,16.85,32.23,26.62
			l-3.1-1.25l0.74,0.01l0.11,0c2.45,0.03,4.41,2.04,4.38,4.49c-0.02,1.24-0.55,2.37-1.39,3.17c-3.57,3.38-7.27,6.62-11.1,9.7
			c-3.81,3.1-7.77,6.01-11.83,8.77c-4.03,2.79-8.22,5.34-12.48,7.76c-4.28,2.38-8.63,4.62-13.13,6.54c-0.58,0.25-1.25-0.02-1.49-0.6
			C349.12,284.78,349.28,284.23,349.68,283.91L349.68,283.91z"/>
	</g>
</g>
<g id="Layer_3" class="st1">
	<g class="st2">
		<path d="M283.05,232.78c-0.49-6.51-2.86-12.89-6.9-17.95c-2.05-2.51-4.44-4.73-7.15-6.48c-2.71-1.76-5.68-3.09-8.8-3.98
			c-3.12-0.88-6.34-1.36-9.61-1.41c-3.27-0.09-6.51,0.19-9.65,0.92c-3.14,0.71-6.16,1.88-8.91,3.49c-2.73,1.63-5.18,3.7-7.2,6.14
			c-2.02,2.44-3.6,5.23-4.73,8.2c-0.56,1.49-1.01,3.02-1.35,4.59c-0.36,1.56-0.58,3.2-0.76,4.76c-0.61,6.37,0.63,12.82,3.03,18.85
			c1.21,3.09,2.6,5.96,4.23,8.86c1.61,2.9,3.4,5.73,5.04,8.84c0.81,1.56,1.6,3.18,2.2,5l0.39,1.41c0.11,0.48,0.18,0.99,0.27,1.49
			c0.06,0.51,0.07,1.05,0.1,1.57c0,0.48,0,0.77,0.02,1.15c0.13,2.87,1.23,5.54,3.16,7.63l0.01,0.02L234.6,285h33.9
			c1.38,0,2.5,1.12,2.5,2.5s-1.12,2.5-2.5,2.5h-33.9h-0.03c-0.73,0-1.39-0.33-1.83-0.83l-0.02-0.02c-2.62-2.91-4.17-6.88-4.25-10.77
			c-0.02-0.47,0-1.02,0-1.38c-0.02-0.32-0.02-0.63-0.05-0.96l-0.16-1l-0.27-1.04c-0.43-1.4-1.09-2.84-1.81-4.29
			c-1.46-2.89-3.22-5.79-4.84-8.82c-1.63-3.01-3.13-6.24-4.32-9.46c-2.48-6.52-3.75-13.71-2.95-20.8c0.23-1.78,0.5-3.49,0.92-5.21
			c0.41-1.72,0.93-3.43,1.59-5.09c1.32-3.31,3.16-6.44,5.5-9.16c2.33-2.72,5.15-5.01,8.24-6.79c3.11-1.75,6.48-2.98,9.93-3.7
			c3.44-0.73,6.99-0.98,10.46-0.82c3.48,0.11,6.98,0.69,10.33,1.7c3.36,1.02,6.57,2.53,9.49,4.5c2.93,1.96,5.49,4.43,7.66,7.19
			c4.29,5.58,6.69,12.45,7.09,19.4c0.04,0.62-0.43,1.14-1.05,1.18C283.62,233.85,283.1,233.39,283.05,232.78z"/>
	</g>
	<g class="st2">
		<path d="M248,286.5l2.1-70c0.01-0.22,0.19-0.4,0.42-0.39c0.21,0.01,0.38,0.18,0.39,0.39l2.1,70c0.04,1.38-1.04,2.53-2.43,2.57
			c-1.38,0.04-2.53-1.04-2.57-2.43C248,286.6,248,286.55,248,286.5z"/>
	</g>
	<g class="st2">
		<path d="M283.05,232.78c-0.49-6.51-2.86-12.89-6.9-17.95c-2.05-2.51-4.44-4.73-7.15-6.48c-2.71-1.76-5.68-3.09-8.8-3.98
			c-3.12-0.88-6.34-1.36-9.61-1.41c-3.27-0.09-6.51,0.19-9.65,0.92c-3.14,0.71-6.16,1.88-8.91,3.49c-2.73,1.63-5.18,3.7-7.2,6.14
			c-2.02,2.44-3.6,5.23-4.73,8.2c-0.56,1.49-1.01,3.02-1.35,4.59c-0.36,1.56-0.58,3.2-0.76,4.76c-0.61,6.37,0.63,12.82,3.03,18.85
			c1.21,3.09,2.6,5.96,4.23,8.86c1.61,2.9,3.4,5.73,5.04,8.84c0.81,1.56,1.6,3.18,2.2,5l0.39,1.41c0.11,0.48,0.18,0.99,0.27,1.49
			c0.06,0.51,0.07,1.05,0.1,1.57c0,0.48,0,0.77,0.02,1.15c0.13,2.87,1.23,5.54,3.16,7.63l0.01,0.02L234.6,285h33.9
			c1.38,0,2.5,1.12,2.5,2.5s-1.12,2.5-2.5,2.5h-33.9h-0.03c-0.73,0-1.39-0.33-1.83-0.83l-0.02-0.02c-2.62-2.91-4.17-6.88-4.25-10.77
			c-0.02-0.47,0-1.02,0-1.38c-0.02-0.32-0.02-0.63-0.05-0.96l-0.16-1l-0.27-1.04c-0.43-1.4-1.09-2.84-1.81-4.29
			c-1.46-2.89-3.22-5.79-4.84-8.82c-1.63-3.01-3.13-6.24-4.32-9.46c-2.48-6.52-3.75-13.71-2.95-20.8c0.23-1.78,0.5-3.49,0.92-5.21
			c0.41-1.72,0.93-3.43,1.59-5.09c1.32-3.31,3.16-6.44,5.5-9.16c2.33-2.72,5.15-5.01,8.24-6.79c3.11-1.75,6.48-2.98,9.93-3.7
			c3.44-0.73,6.99-0.98,10.46-0.82c3.48,0.11,6.98,0.69,10.33,1.7c3.36,1.02,6.57,2.53,9.49,4.5c2.93,1.96,5.49,4.43,7.66,7.19
			c4.29,5.58,6.69,12.45,7.09,19.4c0.04,0.62-0.43,1.14-1.05,1.18C283.62,233.85,283.1,233.39,283.05,232.78z"/>
	</g>
	<g class="st2">
		<path d="M248,286.5l2.1-70c0.01-0.22,0.19-0.4,0.42-0.39c0.21,0.01,0.38,0.18,0.39,0.39l2.1,70c0.04,1.38-1.04,2.53-2.43,2.57
			c-1.38,0.04-2.53-1.04-2.57-2.43C248,286.6,248,286.55,248,286.5z"/>
	</g>
</g>
<g id="Layer_8">
	<g>
		<path class="st0" d="M282.85,232.8c-0.67-6.46-3.16-12.68-7.19-17.58c-2.06-2.41-4.41-4.56-7.07-6.23
			c-2.66-1.68-5.58-2.95-8.62-3.78c-3.06-0.83-6.19-1.28-9.39-1.31c-3.21-0.07-6.35,0.23-9.41,0.95c-3.05,0.71-5.96,1.87-8.59,3.43
			c-2.61,1.59-4.95,3.59-6.87,5.94c-1.92,2.35-3.42,5.03-4.48,7.9c-0.53,1.44-0.95,2.92-1.27,4.43c-0.17,0.76-0.3,1.52-0.42,2.32
			c-0.11,0.79-0.2,1.53-0.28,2.3c-0.54,6.14,0.68,12.36,3.07,18.22c0.3,0.74,0.61,1.47,0.94,2.24c0.34,0.74,0.65,1.44,1,2.16
			c0.7,1.43,1.46,2.84,2.26,4.27c1.59,2.86,3.39,5.68,5.08,8.87c0.84,1.6,1.66,3.27,2.3,5.22l0.42,1.52
			c0.12,0.53,0.21,1.09,0.3,1.64c0.07,0.57,0.09,1.17,0.12,1.76c0,0.51,0,0.73,0.02,1.07c0.14,2.56,1.09,4.84,2.8,6.69l0.01,0.01
			l-2.98-1.33h33.9c2.21,0,4,1.79,4,4s-1.79,4-4,4h-33.9h-0.05c-1.16,0-2.22-0.52-2.93-1.33l-0.02-0.02
			c-1.39-1.59-2.56-3.44-3.34-5.46c-0.79-2.02-1.2-4.14-1.27-6.24c-0.02-0.5,0-1.12,0-1.45l-0.03-0.77l-0.14-0.85l-0.23-0.92
			c-0.38-1.27-1.01-2.66-1.7-4.06c-1.41-2.81-3.17-5.74-4.8-8.8c-0.82-1.53-1.6-3.12-2.34-4.74c-0.37-0.81-0.72-1.66-1.05-2.46
			c-0.32-0.79-0.64-1.62-0.95-2.45c-2.5-6.68-3.78-14.1-2.91-21.43c0.12-0.9,0.26-1.83,0.41-2.71c0.16-0.86,0.34-1.76,0.56-2.64
			c0.43-1.77,0.98-3.53,1.67-5.24c1.38-3.42,3.31-6.65,5.74-9.46c2.43-2.81,5.36-5.17,8.57-6.99c3.22-1.79,6.7-3.04,10.25-3.76
			c3.53-0.73,7.17-0.96,10.7-0.78c3.54,0.14,7.13,0.74,10.55,1.8c3.42,1.08,6.7,2.66,9.67,4.7c2.97,2.04,5.58,4.58,7.73,7.43
			c2.12,2.88,3.8,6.07,4.93,9.42c1.11,3.36,1.75,6.85,1.87,10.35c0.02,0.73-0.55,1.34-1.28,1.37c-0.7,0.02-1.29-0.5-1.36-1.18
			L282.85,232.8z"/>
	</g>
	<polyline class="st3" points="269.5,287.5 265.48,306.5 239.5,306.42 	"/>
	<line class="st3" x1="267.49" y1="297.5" x2="236.5" y2="297.5"/>
	<g>
		<path class="st0" d="M247,287.5l2-55c0.02-0.55,0.48-0.98,1.04-0.96c0.53,0.02,0.94,0.45,0.96,0.96l2,55
			c0.06,1.66-1.23,3.05-2.89,3.11c-1.66,0.06-3.05-1.23-3.11-2.89C247,287.65,247,287.57,247,287.5z"/>
	</g>
</g>
<g id="Layer_6" class="st1">
	<g class="st2">
		<path d="M239.5,302.23l25-1.23c0.83-0.04,1.53,0.6,1.57,1.43s-0.6,1.53-1.43,1.57c-0.05,0-0.1,0-0.15,0l-25-1.23
			c-0.15-0.01-0.27-0.14-0.26-0.29C239.25,302.34,239.36,302.23,239.5,302.23z"/>
	</g>
	<g class="st2">
		<path d="M266.44,297l-29.94-1.36c-0.07,0-0.12-0.06-0.12-0.13c0-0.06,0.05-0.11,0.12-0.12l29.94-1.4c0.83-0.04,1.53,0.6,1.57,1.43
			s-0.6,1.53-1.43,1.57C266.53,297,266.48,297,266.44,297z"/>
	</g>
	<g class="st2">
		<path d="M243.5,308.5l19-1.5l-1.41,1l6-17l-0.04,0.14l1-4c0.2-0.8,1.02-1.29,1.82-1.09c0.8,0.2,1.29,1.02,1.09,1.82l-1,4
			c-0.01,0.05-0.03,0.09-0.04,0.14l-6,17l-0.04,0.11c-0.21,0.59-0.78,0.94-1.38,0.9L243.5,308.5z"/>
	</g>
</g>
<g id="Layer_7" class="st1">
	<polyline class="st4" points="152.5,216.5 133.5,247.5 149.5,281.5 107.5,253.5 129.5,227.5 151.5,216.5 	"/>
	<polyline class="st4" points="351.5,215.5 370.5,246.5 354.5,280.5 396.5,252.5 374.5,226.5 352.5,215.5 	"/>
</g>
<g id="Layer_5" class="st1">
	<path class="st5" d="M257.67,236.04c-0.55-8.46-3.23-32.73-22-54c-25.25-28.62-60.12-29.74-68-30c-7.91-0.26-43.17-1.4-69,25
		c-17.65,18.04-21.55,39.4-23,48c-5.07,30.07,5.49,55.25,10,66c11.03,26.3,29.24,46.81,29,64c-0.03,1.91-0.35,8.99,3,17
		c2.13,5.09,4.99,8.76,7,11"/>
	<path class="st5" d="M128,383h86h9c4.45,2.2,6.92,7.13,6,12c-0.92,4.89-5.03,8.59-10,9c-1.67,0-3.33,0-5,0h-82
		c-4.03,3.85-5.19,9.57-3,14c2.3,4.65,7.28,5.84,8,6c24.33,0,48.67,0,73,0c3.42,2.66,4.99,7.01,4,11c-1.18,4.73-5.76,8.16-11,8
		c-19.67,0-39.33,0-59,0"/>
	<g class="st2">
		<path d="M153,454.4l5.44-0.29l5.44-0.17c3.63-0.1,7.25-0.09,10.88-0.14c3.63,0.05,7.25,0.04,10.88,0.14l5.44,0.17l5.44,0.29
			c0.26,0.01,0.47,0.24,0.45,0.5c-0.01,0.11-0.05,0.2-0.11,0.28l-0.34,0.42c-0.91,1.1-1.81,2.04-2.72,2.83
			c-0.91,0.82-1.81,1.51-2.72,2.16c-1.81,1.28-3.63,2.22-5.44,3.01c-3.63,1.53-7.25,2.18-10.88,2.2c-3.63,0-7.25-0.65-10.88-2.17
			c-1.81-0.8-3.63-1.74-5.44-3.02c-0.91-0.66-1.81-1.34-2.72-2.17c-0.91-0.79-1.81-1.74-2.72-2.84l-0.34-0.42
			c-0.17-0.2-0.14-0.51,0.07-0.67C152.8,454.44,152.9,454.41,153,454.4z"/>
	</g>
</g>
<g id="Layer_4" class="st1">
	<polyline class="st5" points="110,260 196,260 205,260 201,281 196,281 114,281 119,301 192,301 185,320 126,320 	"/>
	<g class="st2">
		<path d="M136,336.4l5.44-0.29l5.44-0.17c3.63-0.1,7.25-0.09,10.88-0.14c3.63,0.05,7.25,0.04,10.88,0.14l5.44,0.17l5.44,0.29
			c0.26,0.01,0.47,0.24,0.45,0.5c-0.01,0.11-0.05,0.2-0.11,0.28l-0.34,0.42c-0.91,1.1-1.81,2.04-2.72,2.83
			c-0.91,0.82-1.81,1.51-2.72,2.16c-1.81,1.28-3.63,2.22-5.44,3.01c-3.63,1.53-7.25,2.18-10.88,2.2c-3.63,0-7.25-0.65-10.88-2.17
			c-1.81-0.8-3.63-1.74-5.44-3.02c-0.91-0.66-1.81-1.34-2.72-2.17c-0.91-0.79-1.81-1.74-2.72-2.84l-0.34-0.42
			c-0.17-0.2-0.14-0.51,0.07-0.67C135.8,336.44,135.9,336.41,136,336.4z"/>
	</g>
</g>
<g id="Layer_2" class="st1">
	<path class="st6" d="M104,247.58c10.74-10.64,27.26-25.05,50-38c18.55-10.57,47.82-27.24,88-29c49.79-2.18,87.25,19.81,108,32
		c20.93,12.29,36.21,25.52,46,35"/>
	<path class="st7" d="M11.5,247.35c10.74,10.64,27.26,25.05,50,38c18.55,10.57,47.82,27.24,88,29c49.79,2.18,87.25-19.81,108-32
		c20.93-12.29,36.21-25.52,46-35"/>
</g>
<g id="Layer_9" class="st1">
	<path id="SVGID_x5F_1_x5F_" class="st8" d="M104,239.58c10.74-10.64,27.26-25.05,50-38c18.55-10.57,47.82-27.24,88-29
		c49.79-2.18,87.25,19.81,108,32c20.93,12.29,36.21,25.52,46,35"/>
	<text class="st2">	<textPath  xlink:href="#SVGID_x5F_1_x5F_" startOffset="8.9355%">
<tspan  style="font-family:'Pacifico-Regular'; font-size:60px;">Spunsona</tspan>	</textPath>
</text>
</g>
</svg>
